<svg width="30" height="30" viewBox="0 0 30 30" fill="none" xmlns="http://www.w3.org/2000/svg">
<path d="M15 0C12.0333 0 9.13319 0.879735 6.66645 2.52796C4.19971 4.17618 2.27713 6.51886 1.14181 9.25975C0.00649925 12.0006 -0.290551 15.0166 0.288227 17.9263C0.867006 20.8361 2.29562 23.5088 4.3934 25.6066C6.49119 27.7044 9.16394 29.133 12.0736 29.7118C14.9834 30.2905 17.9994 29.9935 20.7403 28.8582C23.4811 27.7229 25.8238 25.8003 27.472 23.3335C29.1203 20.8668 30 17.9667 30 15C30 11.0217 28.4196 7.20644 25.6066 4.3934C22.7936 1.58035 18.9783 0 15 0ZM24.8036 23.2929L24.0964 22.575C23.8947 22.3732 23.621 22.2599 23.3357 22.2599C23.0504 22.2599 22.7768 22.3732 22.575 22.575C22.3732 22.7767 22.2599 23.0504 22.2599 23.3357C22.2599 23.621 22.3732 23.8947 22.575 24.0964L23.2929 24.8036C21.2662 26.5547 18.7396 27.623 16.0714 27.8571V26.7857C16.0714 26.5015 15.9586 26.229 15.7576 26.0281C15.5567 25.8272 15.2842 25.7143 15 25.7143C14.7158 25.7143 14.4433 25.8272 14.2424 26.0281C14.0415 26.229 13.9286 26.5015 13.9286 26.7857V27.8571C11.2666 27.6382 8.74064 26.5888 6.70715 24.8571L7.425 24.15C7.62676 23.9482 7.7401 23.6746 7.7401 23.3893C7.7401 23.104 7.62676 22.8303 7.425 22.6286C7.22325 22.4268 6.94961 22.3135 6.66429 22.3135C6.37897 22.3135 6.10533 22.4268 5.90358 22.6286L5.19643 23.3464C3.45438 21.2984 2.40435 18.7521 2.19644 16.0714H3.21429C3.49845 16.0714 3.77097 15.9585 3.97191 15.7576C4.17284 15.5567 4.28572 15.2842 4.28572 15C4.28572 14.7158 4.17284 14.4433 3.97191 14.2424C3.77097 14.0415 3.49845 13.9286 3.21429 13.9286H2.14286C2.36179 11.2666 3.41116 8.74064 5.14286 6.70714L5.85001 7.425C5.95012 7.5243 6.06885 7.60286 6.19939 7.65618C6.32993 7.7095 6.46971 7.73653 6.61072 7.73571C6.75173 7.73653 6.89151 7.7095 7.02205 7.65618C7.15259 7.60286 7.27132 7.5243 7.37143 7.425C7.47186 7.3254 7.55156 7.20689 7.60596 7.07633C7.66035 6.94577 7.68836 6.80573 7.68836 6.66428C7.68836 6.52284 7.66035 6.3828 7.60596 6.25224C7.55156 6.12167 7.47186 6.00317 7.37143 5.90357L6.65358 5.19643C8.7016 3.45437 11.2479 2.40434 13.9286 2.19643V3.21428C13.9286 3.49845 14.0415 3.77097 14.2424 3.9719C14.4433 4.17283 14.7158 4.28571 15 4.28571C15.2842 4.28571 15.5567 4.17283 15.7576 3.9719C15.9586 3.77097 16.0714 3.49845 16.0714 3.21428V2.14286C18.7334 2.36178 21.2594 3.41115 23.2929 5.14286L22.575 5.85C22.4746 5.9496 22.3949 6.0681 22.3405 6.19867C22.2861 6.32923 22.2581 6.46927 22.2581 6.61071C22.2581 6.75215 22.2861 6.8922 22.3405 7.02276C22.3949 7.15332 22.4746 7.27182 22.575 7.37143C22.6751 7.47073 22.7938 7.54929 22.9244 7.60261C23.0549 7.65593 23.1947 7.68296 23.3357 7.68214C23.4767 7.68296 23.6165 7.65593 23.747 7.60261C23.8776 7.54929 23.9963 7.47073 24.0964 7.37143L24.8036 6.65357C26.565 8.69472 27.6341 11.2417 27.8571 13.9286H26.7857C26.5016 13.9286 26.229 14.0415 26.0281 14.2424C25.8272 14.4433 25.7143 14.7158 25.7143 15C25.7143 15.2842 25.8272 15.5567 26.0281 15.7576C26.229 15.9585 26.5016 16.0714 26.7857 16.0714H27.8571C27.623 18.7395 26.5547 21.2662 24.8036 23.2929Z" fill="white"/>
<path d="M19.769 16.1893L16.0725 14.3357V8.57143C16.0725 8.28727 15.9597 8.01475 15.7587 7.81381C15.5578 7.61288 15.2853 7.5 15.0011 7.5C14.717 7.5 14.4444 7.61288 14.2435 7.81381C14.0426 8.01475 13.9297 8.28727 13.9297 8.57143V15C13.9303 15.1979 13.9857 15.3917 14.0897 15.56C14.1937 15.7283 14.3423 15.8645 14.519 15.9536L18.8047 18.0964C18.9529 18.1758 19.1187 18.2163 19.2868 18.2143C19.4847 18.2137 19.6785 18.1583 19.8468 18.0543C20.0151 17.9503 20.1514 17.8017 20.2404 17.625C20.3675 17.372 20.3892 17.0789 20.3009 16.8099C20.2126 16.5409 20.0213 16.3177 19.769 16.1893Z" fill="white"/>
</svg>
