<svg width="22" height="30" viewBox="0 0 22 30" fill="none" xmlns="http://www.w3.org/2000/svg">
<path d="M10.7143 0C6.53571 0 3.21429 3.32143 3.21429 7.5V8.57143C1.39286 8.57143 0 9.96428 0 11.7857V19.2857C0 25.1786 4.82143 30 10.7143 30C16.6071 30 21.4286 25.1786 21.4286 19.2857V11.7857C21.4286 9.96428 20.0357 8.57143 18.2143 8.57143V7.5C18.2143 3.32143 14.8929 0 10.7143 0ZM19.2857 11.7857V19.2857C19.2857 24 15.4286 27.8571 10.7143 27.8571C6 27.8571 2.14286 24 2.14286 19.2857V11.7857C2.14286 11.1429 2.57143 10.7143 3.21429 10.7143H4.28571H17.1429H18.2143C18.8571 10.7143 19.2857 11.1429 19.2857 11.7857ZM5.35714 8.57143V7.5C5.35714 4.5 7.71429 2.14286 10.7143 2.14286C13.7143 2.14286 16.0714 4.5 16.0714 7.5V8.57143H5.35714Z" fill="white"/>
<path d="M9.8577 16.8217H13.3934C14.0363 16.8217 14.4648 16.3931 14.4648 15.7503C14.4648 15.1074 14.0363 14.6789 13.3934 14.6789H11.7863V13.9289C11.7863 13.286 11.3577 12.8574 10.7148 12.8574C10.072 12.8574 9.64341 13.286 9.64341 13.9289V14.6789C8.14342 14.786 6.96484 15.9646 6.96484 17.4646C6.96484 19.0717 8.25056 20.3574 9.8577 20.3574H11.6791C12.1077 20.3574 12.4291 20.6789 12.4291 21.1074C12.4291 21.536 12.1077 21.8574 11.6791 21.8574H8.14342C7.50056 21.8574 7.07199 22.286 7.07199 22.9289C7.07199 23.5717 7.50056 24.0003 8.14342 24.0003H9.64341V24.6431C9.64341 25.286 10.072 25.7146 10.7148 25.7146C11.3577 25.7146 11.7863 25.286 11.7863 24.6431V23.8931C13.2863 23.786 14.4648 22.6074 14.4648 21.1074C14.4648 19.5003 13.1791 18.2146 11.572 18.2146H9.75056C9.32199 18.2146 9.00056 17.8931 9.00056 17.4646C9.1077 17.1431 9.42913 16.8217 9.8577 16.8217Z" fill="white"/>
</svg>
