<svg width="29" height="31" viewBox="0 0 29 31" fill="none" xmlns="http://www.w3.org/2000/svg">
<path d="M24.3818 14.4275C24.0887 14.4275 23.8077 14.3111 23.6004 14.1038C23.3932 13.8966 23.2768 13.6155 23.2768 13.3225V10.2018C23.2768 5.78161 19.1925 2.24546 14.1712 2.24546C9.14982 2.24546 5.06556 5.82581 5.06556 10.2018V13.3225C5.06556 13.6155 4.94914 13.8966 4.7419 14.1038C4.53467 14.3111 4.25359 14.4275 3.96052 14.4275C3.66744 14.4275 3.38637 14.3111 3.17913 14.1038C2.97189 13.8966 2.85547 13.6155 2.85547 13.3225V10.2018C2.85547 4.57932 7.93869 0 14.1712 0C20.4036 0 25.4869 4.57932 25.4869 10.2018V13.3225C25.488 13.4679 25.4603 13.6121 25.4051 13.7467C25.35 13.8813 25.2687 14.0036 25.1658 14.1065C25.063 14.2093 24.9407 14.2907 24.8061 14.3458C24.6715 14.4009 24.5273 14.4287 24.3818 14.4275Z" fill="white"/>
<path d="M21.3937 24.8245C21.1007 24.8245 20.8196 24.7081 20.6123 24.5009C20.4051 24.2936 20.2887 24.0125 20.2887 23.7195V13.2259C20.2979 12.939 20.4183 12.667 20.6246 12.4673C20.8308 12.2677 21.1067 12.1561 21.3937 12.1563C25.2039 12.1563 28.3069 15.0117 28.3069 18.5125C28.3069 22.0133 25.2039 24.8245 21.3937 24.8245ZM22.4988 14.4459V22.4995C23.4663 22.3393 24.3498 21.853 25.0027 21.1213C25.6556 20.3896 26.0386 19.4565 26.088 18.4771C26.0406 17.4962 25.6585 16.5611 25.0054 15.8276C24.3523 15.094 23.4677 14.6064 22.4988 14.4459ZM6.91318 24.8245C3.10298 24.8245 0 21.9779 0 18.4771C0 14.9763 3.10298 12.1563 6.91318 12.1563C7.20626 12.1563 7.48733 12.2727 7.69457 12.4799C7.9018 12.6871 8.01823 12.9682 8.01823 13.2613V23.7195C8.01823 24.0125 7.9018 24.2936 7.69457 24.5009C7.48733 24.7081 7.20626 24.8245 6.91318 24.8245ZM5.80813 14.4459C4.83923 14.6064 3.95457 15.094 3.30149 15.8276C2.64842 16.5611 2.26635 17.4962 2.21894 18.4771C2.26832 19.4565 2.65126 20.3896 3.30417 21.1213C3.95708 21.853 4.84065 22.3393 5.80813 22.4995V14.4459Z" fill="white"/>
<path d="M21.0325 28.4233H17.3726C17.0795 28.4233 16.7985 28.3068 16.5912 28.0996C16.384 27.8924 16.2676 27.6113 16.2676 27.3182C16.2676 27.0251 16.384 26.7441 16.5912 26.5368C16.7985 26.3296 17.0795 26.2132 17.3726 26.2132H21.0325C21.6046 26.2132 22.1533 25.9859 22.5578 25.5814C22.9623 25.1769 23.1896 24.6282 23.1896 24.0561V23.5699C23.1896 23.2768 23.306 22.9957 23.5133 22.7885C23.7205 22.5813 24.0016 22.4648 24.2946 22.4648C24.5877 22.4648 24.8688 22.5813 25.076 22.7885C25.2833 22.9957 25.3997 23.2768 25.3997 23.5699V24.0561C25.3997 25.2144 24.9396 26.3252 24.1206 27.1442C23.3016 27.9632 22.1908 28.4233 21.0325 28.4233Z" fill="white"/>
<path d="M15.4804 30.5006H13.2968C12.495 30.5006 11.726 30.1821 11.159 29.6151C10.592 29.0481 10.2734 28.2791 10.2734 27.4772V27.3534C10.2758 26.5531 10.5953 25.7864 11.1621 25.2213C11.7288 24.6562 12.4965 24.3389 13.2968 24.3389H15.4804C16.2799 24.3389 17.0467 24.6565 17.612 25.2218C18.1774 25.7872 18.495 26.5539 18.495 27.3534V27.4772C18.495 28.2775 18.1777 29.0452 17.6126 29.612C17.0475 30.1787 16.2808 30.4983 15.4804 30.5006ZM13.3145 26.549C13.1003 26.549 12.8948 26.6334 12.7425 26.784C12.5903 26.9347 12.5035 27.1393 12.5012 27.3534V27.4772C12.5012 27.6929 12.5869 27.8998 12.7394 28.0523C12.892 28.2048 13.0988 28.2905 13.3145 28.2905H15.4804C15.6946 28.2882 15.8992 28.2015 16.0498 28.0492C16.2004 27.8969 16.2849 27.6914 16.2849 27.4772V27.3534C16.2849 27.1401 16.2001 26.9355 16.0493 26.7846C15.8984 26.6337 15.6938 26.549 15.4804 26.549H13.3145Z" fill="white"/>
</svg>
